<svg width="594" height="499" viewBox="0 0 594 499" fill="none" xmlns="http://www.w3.org/2000/svg">
<g filter="url(#filter0_di_99_40)">
<path d="M199.701 94.6432C255.888 101.417 288.242 108.25 333.499 84.5764C378.637 60.9391 436.753 6.83661 486.323 0.875704C535.967 -5.04246 577.14 37.2237 586.852 88.403C596.565 139.582 574.847 199.797 558.525 250.402C542.158 301.086 531.337 342.247 515.312 385.668C499.287 429.09 478.178 474.736 443.967 486.795C409.801 498.776 362.415 477.206 317.661 473.539C272.908 469.872 230.639 484.023 181.529 483.735C132.39 483.324 76.336 468.433 47.4001 431.521C18.5087 394.53 16.6165 335.554 10.5311 272.487C4.37139 209.378 -5.93683 142.097 28.808 111.749C63.5527 81.4012 143.544 87.992 199.701 94.6432Z" fill="#87CFFF"/>
</g>
<defs>
<filter id="filter0_di_99_40" x="0.178528" y="0.321045" width="593.083" height="498.061" filterUnits="userSpaceOnUse" color-interpolation-filters="sRGB">
<feFlood flood-opacity="0" result="BackgroundImageFix"/>
<feColorMatrix in="SourceAlpha" type="matrix" values="0 0 0 0 0 0 0 0 0 0 0 0 0 0 0 0 0 0 127 0" result="hardAlpha"/>
<feOffset dy="4"/>
<feGaussianBlur stdDeviation="2"/>
<feComposite in2="hardAlpha" operator="out"/>
<feColorMatrix type="matrix" values="0 0 0 0 0 0 0 0 0 0 0 0 0 0 0 0 0 0 0.25 0"/>
<feBlend mode="normal" in2="BackgroundImageFix" result="effect1_dropShadow_99_40"/>
<feBlend mode="normal" in="SourceGraphic" in2="effect1_dropShadow_99_40" result="shape"/>
<feColorMatrix in="SourceAlpha" type="matrix" values="0 0 0 0 0 0 0 0 0 0 0 0 0 0 0 0 0 0 127 0" result="hardAlpha"/>
<feOffset dy="4"/>
<feGaussianBlur stdDeviation="2"/>
<feComposite in2="hardAlpha" operator="arithmetic" k2="-1" k3="1"/>
<feColorMatrix type="matrix" values="0 0 0 0 0 0 0 0 0 0 0 0 0 0 0 0 0 0 0.25 0"/>
<feBlend mode="normal" in2="shape" result="effect2_innerShadow_99_40"/>
</filter>
</defs>
</svg>
