<svg width="564" height="505" viewBox="0 0 564 505" fill="none" xmlns="http://www.w3.org/2000/svg">
<g filter="url(#filter0_di_99_33)">
<path d="M520.034 247.549C526.963 317.988 573.476 383.182 555.743 407.872C538.01 432.561 455.893 416.85 405.792 428.242C355.754 439.72 337.601 478.268 308.045 491.276C278.495 504.148 237.48 491.394 178.052 486.215C118.756 481.07 40.9852 483.416 15.4442 447.397C-10.0968 411.378 16.5297 336.909 26.8045 276.631C37.0104 216.403 30.8577 170.502 37.9393 127.863C45.0277 85.0881 65.4057 45.7978 97.4262 23.1899C129.447 0.582015 173.103 -5.2069 214.046 4.97034C254.921 15.199 293.152 41.3424 353.525 47.5246C413.835 53.6216 496.349 39.8425 521.154 70.625C546.022 101.493 513.167 177.195 520.034 247.549Z" fill="#87CFFF"/>
</g>
<defs>
<filter id="filter0_di_99_33" x="0.688599" y="0.13208" width="563.058" height="504.718" filterUnits="userSpaceOnUse" color-interpolation-filters="sRGB">
<feFlood flood-opacity="0" result="BackgroundImageFix"/>
<feColorMatrix in="SourceAlpha" type="matrix" values="0 0 0 0 0 0 0 0 0 0 0 0 0 0 0 0 0 0 127 0" result="hardAlpha"/>
<feOffset dy="4"/>
<feGaussianBlur stdDeviation="2"/>
<feComposite in2="hardAlpha" operator="out"/>
<feColorMatrix type="matrix" values="0 0 0 0 0 0 0 0 0 0 0 0 0 0 0 0 0 0 0.25 0"/>
<feBlend mode="normal" in2="BackgroundImageFix" result="effect1_dropShadow_99_33"/>
<feBlend mode="normal" in="SourceGraphic" in2="effect1_dropShadow_99_33" result="shape"/>
<feColorMatrix in="SourceAlpha" type="matrix" values="0 0 0 0 0 0 0 0 0 0 0 0 0 0 0 0 0 0 127 0" result="hardAlpha"/>
<feOffset dy="4"/>
<feGaussianBlur stdDeviation="2"/>
<feComposite in2="hardAlpha" operator="arithmetic" k2="-1" k3="1"/>
<feColorMatrix type="matrix" values="0 0 0 0 0 0 0 0 0 0 0 0 0 0 0 0 0 0 0.25 0"/>
<feBlend mode="normal" in2="shape" result="effect2_innerShadow_99_33"/>
</filter>
</defs>
</svg>
