<svg width="712" height="1245" viewBox="0 0 712 1245" fill="none" xmlns="http://www.w3.org/2000/svg">
<path d="M0 218.207L11.8667 208.581C23.7333 198.955 47.4667 179.702 71.2 169.114C94.9333 158.204 118.667 156.279 142.4 191.896C166.133 227.833 189.867 301.634 213.6 326.662C237.333 352.011 261.067 328.267 284.8 298.425C308.533 268.584 332.267 232.005 356 245.481C379.733 258.958 403.467 321.849 427.2 360.996C450.933 400.142 474.667 414.902 498.4 405.276C522.133 395.65 545.867 361.637 569.6 303.238C593.333 244.84 617.067 162.696 640.8 141.198C664.533 119.699 688.267 159.487 700.133 179.061L712 198.955V1245H700.133C688.267 1245 664.533 1245 640.8 1245C617.067 1245 593.333 1245 569.6 1245C545.867 1245 522.133 1245 498.4 1245C474.667 1245 450.933 1245 427.2 1245C403.467 1245 379.733 1245 356 1245C332.267 1245 308.533 1245 284.8 1245C261.067 1245 237.333 1245 213.6 1245C189.867 1245 166.133 1245 142.4 1245C118.667 1245 94.9333 1245 71.2 1245C47.4667 1245 23.7333 1245 11.8667 1245H0V218.207Z" fill="#87CFFF"/>
<path d="M0 375.567L11.8667 363.697C23.7333 352.147 47.4667 328.406 71.2 339.314C94.9333 349.901 118.667 394.817 142.4 437.166C166.133 479.193 189.867 518.976 213.6 516.088C237.333 513.522 261.067 468.606 284.8 432.674C308.533 397.062 332.267 370.113 356 386.154C379.733 402.196 403.467 461.227 427.2 482.081C450.933 502.934 474.667 485.61 498.4 448.715C522.133 411.82 545.867 355.355 569.6 324.236C593.333 293.116 617.067 287.982 640.8 312.365C664.533 337.068 688.267 391.609 700.133 418.879L712 446.149V1245H700.133C688.267 1245 664.533 1245 640.8 1245C617.067 1245 593.333 1245 569.6 1245C545.867 1245 522.133 1245 498.4 1245C474.667 1245 450.933 1245 427.2 1245C403.467 1245 379.733 1245 356 1245C332.267 1245 308.533 1245 284.8 1245C261.067 1245 237.333 1245 213.6 1245C189.867 1245 166.133 1245 142.4 1245C118.667 1245 94.9333 1245 71.2 1245C47.4667 1245 23.7333 1245 11.8667 1245H0V375.567Z" fill="#75BBEC"/>
<path d="M0 676.973L11.8667 647.448C23.7333 618.244 47.4667 559.195 71.2 539.619C94.9333 519.722 118.667 538.977 142.4 547.642C166.133 555.986 189.867 554.061 213.6 524.536C237.333 495.011 261.067 438.53 284.8 423.446C308.533 408.363 332.267 435.32 356 449.762C379.733 464.203 403.467 466.129 427.2 479.607C450.933 493.086 474.667 517.476 498.4 514.908C522.133 512.341 545.867 482.175 569.6 481.212C593.333 480.249 617.067 507.848 640.8 544.754C664.533 581.66 688.267 627.872 700.133 650.657L712 673.764V1245H700.133C688.267 1245 664.533 1245 640.8 1245C617.067 1245 593.333 1245 569.6 1245C545.867 1245 522.133 1245 498.4 1245C474.667 1245 450.933 1245 427.2 1245C403.467 1245 379.733 1245 356 1245C332.267 1245 308.533 1245 284.8 1245C261.067 1245 237.333 1245 213.6 1245C189.867 1245 166.133 1245 142.4 1245C118.667 1245 94.9333 1245 71.2 1245C47.4667 1245 23.7333 1245 11.8667 1245H0V676.973Z" fill="#64A8D9"/>
<path d="M0 703.239L11.8667 708.689C23.7333 713.818 47.4667 724.717 71.2 738.501C94.9333 752.286 118.667 769.597 142.4 742.669C166.133 716.062 189.867 645.536 213.6 620.532C237.333 595.207 261.067 615.724 284.8 642.331C308.533 668.938 332.267 702.277 356 712.215C379.733 722.473 403.467 709.65 427.2 714.459C450.933 719.267 474.667 741.707 498.4 754.53C522.133 767.353 545.867 770.558 569.6 760.3C593.333 750.362 617.067 726.64 640.8 700.995C664.533 675.349 688.267 647.78 700.133 633.675L712 619.891V1245H700.133C688.267 1245 664.533 1245 640.8 1245C617.067 1245 593.333 1245 569.6 1245C545.867 1245 522.133 1245 498.4 1245C474.667 1245 450.933 1245 427.2 1245C403.467 1245 379.733 1245 356 1245C332.267 1245 308.533 1245 284.8 1245C261.067 1245 237.333 1245 213.6 1245C189.867 1245 166.133 1245 142.4 1245C118.667 1245 94.9333 1245 71.2 1245C47.4667 1245 23.7333 1245 11.8667 1245H0V703.239Z" fill="#5295C6"/>
<path d="M0 789.675L11.8667 782.621C23.7333 775.887 47.4667 761.778 71.2 771.077C94.9333 780.055 118.667 812.12 142.4 830.718C166.133 849.637 189.867 854.767 213.6 851.561C237.333 848.354 261.067 836.811 284.8 829.756C308.533 822.702 332.267 820.778 356 818.534C379.733 816.289 403.467 814.365 427.2 802.501C450.933 790.637 474.667 769.474 498.4 774.284C522.133 779.093 545.867 809.876 569.6 833.925C593.333 857.974 617.067 875.289 640.8 884.267C664.533 893.245 688.267 894.528 700.133 894.849L712 895.49V1245H700.133C688.267 1245 664.533 1245 640.8 1245C617.067 1245 593.333 1245 569.6 1245C545.867 1245 522.133 1245 498.4 1245C474.667 1245 450.933 1245 427.2 1245C403.467 1245 379.733 1245 356 1245C332.267 1245 308.533 1245 284.8 1245C261.067 1245 237.333 1245 213.6 1245C189.867 1245 166.133 1245 142.4 1245C118.667 1245 94.9333 1245 71.2 1245C47.4667 1245 23.7333 1245 11.8667 1245H0V789.675Z" fill="#4083B3"/>
<path d="M0 854L11.8667 864.576C23.7333 875.473 47.4667 896.625 71.2 897.907C94.9333 898.869 118.667 879.639 142.4 875.473C166.133 870.986 189.867 881.883 213.6 878.998C237.333 876.434 261.067 860.41 284.8 865.217C308.533 870.025 332.267 895.664 356 917.137C379.733 938.289 403.467 955.596 427.2 957.519C450.933 959.762 474.667 946.943 498.4 938.93C522.133 930.918 545.867 927.713 569.6 939.571C593.333 951.109 617.067 978.03 640.8 977.389C664.533 976.748 688.267 949.186 700.133 935.084L712 921.303V1245H700.133C688.267 1245 664.533 1245 640.8 1245C617.067 1245 593.333 1245 569.6 1245C545.867 1245 522.133 1245 498.4 1245C474.667 1245 450.933 1245 427.2 1245C403.467 1245 379.733 1245 356 1245C332.267 1245 308.533 1245 284.8 1245C261.067 1245 237.333 1245 213.6 1245C189.867 1245 166.133 1245 142.4 1245C118.667 1245 94.9333 1245 71.2 1245C47.4667 1245 23.7333 1245 11.8667 1245H0V854Z" fill="#2E71A1"/>
<path d="M0 1023.61L11.8667 1018.79C23.7333 1013.98 47.4667 1004.36 71.2 1001.79C94.9333 998.9 118.667 1003.39 142.4 1024.57C166.133 1046.07 189.867 1084.57 213.6 1097.4C237.333 1110.24 261.067 1097.4 284.8 1095.8C308.533 1094.2 332.267 1103.82 356 1111.2C379.733 1118.9 403.467 1124.04 427.2 1114.41C450.933 1104.78 474.667 1080.4 498.4 1066.28C522.133 1052.48 545.867 1049.28 569.6 1053.45C593.333 1057.94 617.067 1069.49 640.8 1068.53C664.533 1067.56 688.267 1053.45 700.133 1046.71L712 1039.65V1245H700.133C688.267 1245 664.533 1245 640.8 1245C617.067 1245 593.333 1245 569.6 1245C545.867 1245 522.133 1245 498.4 1245C474.667 1245 450.933 1245 427.2 1245C403.467 1245 379.733 1245 356 1245C332.267 1245 308.533 1245 284.8 1245C261.067 1245 237.333 1245 213.6 1245C189.867 1245 166.133 1245 142.4 1245C118.667 1245 94.9333 1245 71.2 1245C47.4667 1245 23.7333 1245 11.8667 1245H0V1023.61Z" fill="#185F8F"/>
</svg>
