<svg width="1360" height="1049" viewBox="0 0 1360 1049" fill="none" xmlns="http://www.w3.org/2000/svg">
<g clip-path="url(#clip0_99_2)">
<path d="M0 491.282L22.6667 486.037C45.3333 480.792 90.6667 470.302 136 464.532C181.333 458.588 226.667 457.539 272 476.945C317.333 496.527 362.667 536.738 408 550.375C453.333 564.187 498.667 551.25 544 534.99C589.333 518.731 634.667 498.8 680 506.143C725.333 513.486 770.667 547.753 816 569.083C861.333 590.412 906.667 598.455 952 593.21C997.333 587.965 1042.67 569.432 1088 537.613C1133.33 505.793 1178.67 461.036 1224 449.322C1269.33 437.608 1314.67 459.287 1337.33 469.952L1360 480.792V1050.75H1337.33C1314.67 1050.75 1269.33 1050.75 1224 1050.75C1178.67 1050.75 1133.33 1050.75 1088 1050.75C1042.67 1050.75 997.333 1050.75 952 1050.75C906.667 1050.75 861.333 1050.75 816 1050.75C770.667 1050.75 725.333 1050.75 680 1050.75C634.667 1050.75 589.333 1050.75 544 1050.75C498.667 1050.75 453.333 1050.75 408 1050.75C362.667 1050.75 317.333 1050.75 272 1050.75C226.667 1050.75 181.333 1050.75 136 1050.75C90.6667 1050.75 45.3333 1050.75 22.6667 1050.75H0V491.282Z" fill="#87CFFF"/>
<path d="M0 576.95L22.6667 570.481C45.3333 564.187 90.6667 551.249 136 557.194C181.333 562.963 226.667 587.44 272 610.518C317.333 633.421 362.667 655.1 408 653.527C453.333 652.128 498.667 627.652 544 608.07C589.333 588.664 634.667 573.978 680 582.719C725.333 591.461 770.667 623.63 816 634.995C861.333 646.359 906.667 636.918 952 616.812C997.333 596.706 1042.67 565.935 1088 548.977C1133.33 532.018 1178.67 529.22 1224 542.508C1269.33 555.97 1314.67 585.692 1337.33 600.552L1360 615.413V1050.75H1337.33C1314.67 1050.75 1269.33 1050.75 1224 1050.75C1178.67 1050.75 1133.33 1050.75 1088 1050.75C1042.67 1050.75 997.333 1050.75 952 1050.75C906.667 1050.75 861.333 1050.75 816 1050.75C770.667 1050.75 725.333 1050.75 680 1050.75C634.667 1050.75 589.333 1050.75 544 1050.75C498.667 1050.75 453.333 1050.75 408 1050.75C362.667 1050.75 317.333 1050.75 272 1050.75C226.667 1050.75 181.333 1050.75 136 1050.75C90.6667 1050.75 45.3333 1050.75 22.6667 1050.75H0V576.95Z" fill="#75BBEC"/>
<path d="M0 741.293L22.6667 725.209C45.3333 709.299 90.6667 677.13 136 666.465C181.333 655.625 226.667 666.115 272 670.836C317.333 675.381 362.667 674.332 408 658.248C453.333 642.163 498.667 611.392 544 603.175C589.333 594.958 634.667 609.644 680 617.511C725.333 625.379 770.667 626.428 816 633.771C861.333 641.114 906.667 654.401 952 653.003C997.333 651.604 1042.67 635.17 1088 634.645C1133.33 634.121 1178.67 649.156 1224 669.262C1269.33 689.368 1314.67 714.544 1337.33 726.957L1360 739.545V1050.75H1337.33C1314.67 1050.75 1269.33 1050.75 1224 1050.75C1178.67 1050.75 1133.33 1050.75 1088 1050.75C1042.67 1050.75 997.333 1050.75 952 1050.75C906.667 1050.75 861.333 1050.75 816 1050.75C770.667 1050.75 725.333 1050.75 680 1050.75C634.667 1050.75 589.333 1050.75 544 1050.75C498.667 1050.75 453.333 1050.75 408 1050.75C362.667 1050.75 317.333 1050.75 272 1050.75C226.667 1050.75 181.333 1050.75 136 1050.75C90.6667 1050.75 45.3333 1050.75 22.6667 1050.75H0V741.293Z" fill="#64A8D9"/>
<path d="M0 755.28L22.6667 758.252C45.3333 761.049 90.6667 766.994 136 774.512C181.333 782.029 226.667 791.47 272 776.784C317.333 762.273 362.667 723.81 408 710.173C453.333 696.361 498.667 707.55 544 722.062C589.333 736.573 634.667 754.755 680 760.175C725.333 765.77 770.667 758.777 816 761.399C861.333 764.022 906.667 776.26 952 783.253C997.333 790.247 1042.67 791.995 1088 786.4C1133.33 780.98 1178.67 768.043 1224 754.056C1269.33 740.069 1314.67 725.034 1337.33 717.341L1360 709.823V1050.75H1337.33C1314.67 1050.75 1269.33 1050.75 1224 1050.75C1178.67 1050.75 1133.33 1050.75 1088 1050.75C1042.67 1050.75 997.333 1050.75 952 1050.75C906.667 1050.75 861.333 1050.75 816 1050.75C770.667 1050.75 725.333 1050.75 680 1050.75C634.667 1050.75 589.333 1050.75 544 1050.75C498.667 1050.75 453.333 1050.75 408 1050.75C362.667 1050.75 317.333 1050.75 272 1050.75C226.667 1050.75 181.333 1050.75 136 1050.75C90.6667 1050.75 45.3333 1050.75 22.6667 1050.75H0V755.28Z" fill="#5295C6"/>
<path d="M0 802.485L22.6667 798.639C45.3333 794.967 90.6667 787.275 136 792.345C181.333 797.24 226.667 814.723 272 824.864C317.333 835.179 362.667 837.976 408 836.228C453.333 834.479 498.667 828.185 544 824.339C589.333 820.493 634.667 819.444 680 818.22C725.333 816.996 770.667 815.947 816 809.478C861.333 803.009 906.667 791.471 952 794.093C997.333 796.716 1042.67 813.499 1088 826.612C1133.33 839.724 1178.67 849.165 1224 854.061C1269.33 858.956 1314.67 859.655 1337.33 859.83L1360 860.18V1050.75H1337.33C1314.67 1050.75 1269.33 1050.75 1224 1050.75C1178.67 1050.75 1133.33 1050.75 1088 1050.75C1042.67 1050.75 997.333 1050.75 952 1050.75C906.667 1050.75 861.333 1050.75 816 1050.75C770.667 1050.75 725.333 1050.75 680 1050.75C634.667 1050.75 589.333 1050.75 544 1050.75C498.667 1050.75 453.333 1050.75 408 1050.75C362.667 1050.75 317.333 1050.75 272 1050.75C226.667 1050.75 181.333 1050.75 136 1050.75C90.6667 1050.75 45.3333 1050.75 22.6667 1050.75H0V802.485Z" fill="#4083B3"/>
<path d="M0 837.452L22.6667 843.221C45.3333 849.165 90.6667 860.705 136 861.404C181.333 861.928 226.667 851.438 272 849.166C317.333 846.718 362.667 852.662 408 851.089C453.333 849.69 498.667 840.948 544 843.571C589.333 846.193 634.667 860.18 680 871.894C725.333 883.433 770.667 892.874 816 893.923C861.333 895.147 906.667 888.153 952 883.782C997.333 879.412 1042.67 877.663 1088 884.132C1133.33 890.426 1178.67 905.112 1224 904.762C1269.33 904.413 1314.67 889.377 1337.33 881.684L1360 874.167V1050.75H1337.33C1314.67 1050.75 1269.33 1050.75 1224 1050.75C1178.67 1050.75 1133.33 1050.75 1088 1050.75C1042.67 1050.75 997.333 1050.75 952 1050.75C906.667 1050.75 861.333 1050.75 816 1050.75C770.667 1050.75 725.333 1050.75 680 1050.75C634.667 1050.75 589.333 1050.75 544 1050.75C498.667 1050.75 453.333 1050.75 408 1050.75C362.667 1050.75 317.333 1050.75 272 1050.75C226.667 1050.75 181.333 1050.75 136 1050.75C90.6667 1050.75 45.3333 1050.75 22.6667 1050.75H0V837.452Z" fill="#2E71A1"/>
<path d="M0 930.113L22.6667 927.491C45.3333 924.868 90.6667 919.623 136 918.225C181.333 916.651 226.667 919.099 272 930.638C317.333 942.352 362.667 963.332 408 970.325C453.333 977.318 498.667 970.325 544 969.451C589.333 968.577 634.667 973.822 680 977.843C725.333 982.039 770.667 984.836 816 979.591C861.333 974.346 906.667 961.059 952 953.366C997.333 945.848 1042.67 944.1 1088 946.373C1133.33 948.82 1178.67 955.114 1224 954.59C1269.33 954.065 1314.67 946.373 1337.33 942.701L1360 938.855V1050.75H1337.33C1314.67 1050.75 1269.33 1050.75 1224 1050.75C1178.67 1050.75 1133.33 1050.75 1088 1050.75C1042.67 1050.75 997.333 1050.75 952 1050.75C906.667 1050.75 861.333 1050.75 816 1050.75C770.667 1050.75 725.333 1050.75 680 1050.75C634.667 1050.75 589.333 1050.75 544 1050.75C498.667 1050.75 453.333 1050.75 408 1050.75C362.667 1050.75 317.333 1050.75 272 1050.75C226.667 1050.75 181.333 1050.75 136 1050.75C90.6667 1050.75 45.3333 1050.75 22.6667 1050.75H0V930.113Z" fill="#185F8F"/>
</g>
<defs>
<clipPath id="clip0_99_2">
<rect width="1360" height="1049" fill="white"/>
</clipPath>
</defs>
</svg>
