<svg width="58" height="58" viewBox="0 0 58 58" fill="none" xmlns="http://www.w3.org/2000/svg">
<g clip-path="url(#clip0_299_2)" filter="url(#filter0_d_299_2)">
<path d="M15.4188 4.15001C15.2343 3.9127 15.0014 3.71736 14.7356 3.57696C14.4699 3.43656 14.1773 3.35432 13.8773 3.3357C13.5772 3.31708 13.2767 3.3625 12.9956 3.46896C12.7145 3.57541 12.4593 3.74046 12.2469 3.95313L9.01563 7.18751C7.50626 8.70001 6.95001 10.8406 7.60938 12.7188C10.3461 20.4925 14.7978 27.5503 20.6344 33.3688C26.4529 39.2053 33.5107 43.657 41.2844 46.3938C43.1625 47.0531 45.3031 46.4969 46.8156 44.9875L50.0469 41.7563C50.2596 41.5438 50.4246 41.2886 50.5311 41.0075C50.6375 40.7264 50.6829 40.4259 50.6643 40.1259C50.6457 39.8259 50.5635 39.5333 50.4231 39.2675C50.2827 39.0017 50.0873 38.7689 49.85 38.5844L42.6406 32.9781C42.3871 32.7815 42.0922 32.645 41.7782 32.579C41.4643 32.5129 41.1394 32.519 40.8281 32.5969L33.9844 34.3063C33.0709 34.5346 32.1138 34.5225 31.2064 34.2711C30.299 34.0197 29.4721 33.5377 28.8063 32.8719L21.1313 25.1938C20.4649 24.5282 19.9823 23.7015 19.7304 22.7941C19.4784 21.8866 19.4658 20.9294 19.6938 20.0156L21.4063 13.1719C21.4841 12.8606 21.4902 12.5357 21.4242 12.2218C21.3581 11.9078 21.2216 11.6129 21.025 11.3594L15.4188 4.15001ZM9.88751 1.59688C10.4344 1.04985 11.0913 0.625414 11.8148 0.35176C12.5383 0.0781066 13.3117 -0.0385038 14.0837 0.00967208C14.8557 0.057848 15.6086 0.269708 16.2924 0.631184C16.9763 0.992659 17.5754 1.49548 18.05 2.10626L23.6563 9.31251C24.6844 10.6344 25.0469 12.3563 24.6406 13.9813L22.9313 20.825C22.8429 21.1795 22.8477 21.5508 22.9451 21.9028C23.0426 22.2549 23.2294 22.5758 23.4875 22.8344L31.1656 30.5125C31.4245 30.7711 31.7459 30.9583 32.0986 31.0557C32.4513 31.1532 32.8232 31.1577 33.1781 31.0688L40.0188 29.3594C40.8207 29.1589 41.6577 29.1433 42.4665 29.3138C43.2753 29.4844 44.0348 29.8366 44.6875 30.3438L51.8938 35.95C54.4844 37.9656 54.7219 41.7938 52.4031 44.1094L49.1719 47.3406C46.8594 49.6531 43.4031 50.6688 40.1813 49.5344C31.935 46.6329 24.4477 41.912 18.275 35.7219C12.0853 29.5501 7.36441 22.0639 4.46251 13.8188C3.33126 10.6 4.34688 7.14063 6.65938 4.82813L9.89063 1.59688H9.88751Z" fill="#185F8F"/>
</g>
<defs>
<filter id="filter0_d_299_2" x="0" y="0" width="58" height="58" filterUnits="userSpaceOnUse" color-interpolation-filters="sRGB">
<feFlood flood-opacity="0" result="BackgroundImageFix"/>
<feColorMatrix in="SourceAlpha" type="matrix" values="0 0 0 0 0 0 0 0 0 0 0 0 0 0 0 0 0 0 127 0" result="hardAlpha"/>
<feOffset dy="4"/>
<feGaussianBlur stdDeviation="2"/>
<feComposite in2="hardAlpha" operator="out"/>
<feColorMatrix type="matrix" values="0 0 0 0 0 0 0 0 0 0 0 0 0 0 0 0 0 0 0.25 0"/>
<feBlend mode="normal" in2="BackgroundImageFix" result="effect1_dropShadow_299_2"/>
<feBlend mode="normal" in="SourceGraphic" in2="effect1_dropShadow_299_2" result="shape"/>
</filter>
<clipPath id="clip0_299_2">
<rect width="50" height="50" fill="white" transform="translate(4)"/>
</clipPath>
</defs>
</svg>
