<svg width="55" height="58" viewBox="0 0 55 58" fill="none" xmlns="http://www.w3.org/2000/svg">
<g filter="url(#filter0_d_299_9)">
<path d="M19.625 32.8125C19.625 32.3981 19.7896 32.0007 20.0826 31.7076C20.3757 31.4146 20.7731 31.25 21.1875 31.25H27.4375C27.8519 31.25 28.2493 31.4146 28.5424 31.7076C28.8354 32.0007 29 32.3981 29 32.8125C29 33.2269 28.8354 33.6243 28.5424 33.9174C28.2493 34.2104 27.8519 34.375 27.4375 34.375H21.1875C20.7731 34.375 20.3757 34.2104 20.0826 33.9174C19.7896 33.6243 19.625 33.2269 19.625 32.8125ZM19.625 26.5625C19.625 26.1481 19.7896 25.7507 20.0826 25.4576C20.3757 25.1646 20.7731 25 21.1875 25H36.8125C37.2269 25 37.6243 25.1646 37.9174 25.4576C38.2104 25.7507 38.375 26.1481 38.375 26.5625C38.375 26.9769 38.2104 27.3743 37.9174 27.6674C37.6243 27.9604 37.2269 28.125 36.8125 28.125H21.1875C20.7731 28.125 20.3757 27.9604 20.0826 27.6674C19.7896 27.3743 19.625 26.9769 19.625 26.5625ZM19.625 20.3125C19.625 19.8981 19.7896 19.5007 20.0826 19.2076C20.3757 18.9146 20.7731 18.75 21.1875 18.75H36.8125C37.2269 18.75 37.6243 18.9146 37.9174 19.2076C38.2104 19.5007 38.375 19.8981 38.375 20.3125C38.375 20.7269 38.2104 21.1243 37.9174 21.4174C37.6243 21.7104 37.2269 21.875 36.8125 21.875H21.1875C20.7731 21.875 20.3757 21.7104 20.0826 21.4174C19.7896 21.1243 19.625 20.7269 19.625 20.3125ZM19.625 14.0625C19.625 13.6481 19.7896 13.2507 20.0826 12.9576C20.3757 12.6646 20.7731 12.5 21.1875 12.5H36.8125C37.2269 12.5 37.6243 12.6646 37.9174 12.9576C38.2104 13.2507 38.375 13.6481 38.375 14.0625C38.375 14.4769 38.2104 14.8743 37.9174 15.1674C37.6243 15.4604 37.2269 15.625 36.8125 15.625H21.1875C20.7731 15.625 20.3757 15.4604 20.0826 15.1674C19.7896 14.8743 19.625 14.4769 19.625 14.0625Z" fill="#185F8F"/>
<path d="M13.375 0H44.625C46.2826 0 47.8723 0.65848 49.0444 1.83058C50.2165 3.00269 50.875 4.5924 50.875 6.25V43.75C50.875 45.4076 50.2165 46.9973 49.0444 48.1694C47.8723 49.3415 46.2826 50 44.625 50H13.375C11.7174 50 10.1277 49.3415 8.95558 48.1694C7.78348 46.9973 7.125 45.4076 7.125 43.75V40.625H10.25V43.75C10.25 44.5788 10.5792 45.3737 11.1653 45.9597C11.7513 46.5458 12.5462 46.875 13.375 46.875H44.625C45.4538 46.875 46.2487 46.5458 46.8347 45.9597C47.4208 45.3737 47.75 44.5788 47.75 43.75V6.25C47.75 5.4212 47.4208 4.62634 46.8347 4.04029C46.2487 3.45424 45.4538 3.125 44.625 3.125H13.375C12.5462 3.125 11.7513 3.45424 11.1653 4.04029C10.5792 4.62634 10.25 5.4212 10.25 6.25V9.375H7.125V6.25C7.125 4.5924 7.78348 3.00269 8.95558 1.83058C10.1277 0.65848 11.7174 0 13.375 0V0Z" fill="#185F8F"/>
<path d="M7.125 15.625V14.0625C7.125 13.6481 7.28962 13.2507 7.58265 12.9576C7.87567 12.6646 8.2731 12.5 8.6875 12.5C9.1019 12.5 9.49933 12.6646 9.79235 12.9576C10.0854 13.2507 10.25 13.6481 10.25 14.0625V15.625H11.8125C12.2269 15.625 12.6243 15.7896 12.9174 16.0826C13.2104 16.3757 13.375 16.7731 13.375 17.1875C13.375 17.6019 13.2104 17.9993 12.9174 18.2924C12.6243 18.5854 12.2269 18.75 11.8125 18.75H5.5625C5.1481 18.75 4.75067 18.5854 4.45765 18.2924C4.16462 17.9993 4 17.6019 4 17.1875C4 16.7731 4.16462 16.3757 4.45765 16.0826C4.75067 15.7896 5.1481 15.625 5.5625 15.625H7.125ZM7.125 25V23.4375C7.125 23.0231 7.28962 22.6257 7.58265 22.3326C7.87567 22.0396 8.2731 21.875 8.6875 21.875C9.1019 21.875 9.49933 22.0396 9.79235 22.3326C10.0854 22.6257 10.25 23.0231 10.25 23.4375V25H11.8125C12.2269 25 12.6243 25.1646 12.9174 25.4576C13.2104 25.7507 13.375 26.1481 13.375 26.5625C13.375 26.9769 13.2104 27.3743 12.9174 27.6674C12.6243 27.9604 12.2269 28.125 11.8125 28.125H5.5625C5.1481 28.125 4.75067 27.9604 4.45765 27.6674C4.16462 27.3743 4 26.9769 4 26.5625C4 26.1481 4.16462 25.7507 4.45765 25.4576C4.75067 25.1646 5.1481 25 5.5625 25H7.125ZM7.125 34.375V32.8125C7.125 32.3981 7.28962 32.0007 7.58265 31.7076C7.87567 31.4146 8.2731 31.25 8.6875 31.25C9.1019 31.25 9.49933 31.4146 9.79235 31.7076C10.0854 32.0007 10.25 32.3981 10.25 32.8125V34.375H11.8125C12.2269 34.375 12.6243 34.5396 12.9174 34.8326C13.2104 35.1257 13.375 35.5231 13.375 35.9375C13.375 36.3519 13.2104 36.7493 12.9174 37.0424C12.6243 37.3354 12.2269 37.5 11.8125 37.5H5.5625C5.1481 37.5 4.75067 37.3354 4.45765 37.0424C4.16462 36.7493 4 36.3519 4 35.9375C4 35.5231 4.16462 35.1257 4.45765 34.8326C4.75067 34.5396 5.1481 34.375 5.5625 34.375H7.125Z" fill="#185F8F"/>
</g>
<defs>
<filter id="filter0_d_299_9" x="0" y="0" width="58" height="58" filterUnits="userSpaceOnUse" color-interpolation-filters="sRGB">
<feFlood flood-opacity="0" result="BackgroundImageFix"/>
<feColorMatrix in="SourceAlpha" type="matrix" values="0 0 0 0 0 0 0 0 0 0 0 0 0 0 0 0 0 0 127 0" result="hardAlpha"/>
<feOffset dy="4"/>
<feGaussianBlur stdDeviation="2"/>
<feComposite in2="hardAlpha" operator="out"/>
<feColorMatrix type="matrix" values="0 0 0 0 0 0 0 0 0 0 0 0 0 0 0 0 0 0 0.25 0"/>
<feBlend mode="normal" in2="BackgroundImageFix" result="effect1_dropShadow_299_9"/>
<feBlend mode="normal" in="SourceGraphic" in2="effect1_dropShadow_299_9" result="shape"/>
</filter>
</defs>
</svg>
