<svg width="879" height="115" viewBox="0 0 879 115" fill="none" xmlns="http://www.w3.org/2000/svg">
<g style="mix-blend-mode:color-burn">
<path fill-rule="evenodd" clip-rule="evenodd" d="M0 56.16L9.5225 63.515C19.7775 70.87 38.8225 85.58 58.6 83.1283C78.3775 80.6766 97.4225 61.0633 117.2 61.0633C136.978 61.0633 156.023 80.6766 175.8 68.4183C195.578 56.16 214.623 12.0299 234.4 12.0299C254.178 12.0299 273.222 56.16 293 56.16C312.778 56.16 331.823 12.0299 351.6 2.22326C371.378 -7.58341 390.423 16.9333 410.2 38.9983C429.978 61.0633 449.023 80.6766 468.8 92.935C488.578 105.193 507.623 110.097 527.4 97.8383C547.178 85.58 566.222 56.16 586 56.16C605.778 56.16 624.823 85.58 644.6 85.58C664.378 85.58 683.423 56.16 703.2 41.45C722.978 26.7399 742.022 26.7399 761.8 38.9983C781.577 51.2566 800.623 75.7733 820.4 88.0316C840.178 100.29 859.223 100.29 869.478 100.29H879V115H869.478C859.223 115 840.178 115 820.4 115C800.623 115 781.577 115 761.8 115C742.022 115 722.978 115 703.2 115C683.423 115 664.378 115 644.6 115C624.823 115 605.778 115 586 115C566.222 115 547.178 115 527.4 115C507.623 115 488.578 115 468.8 115C449.023 115 429.978 115 410.2 115C390.423 115 371.378 115 351.6 115C331.823 115 312.778 115 293 115C273.222 115 254.178 115 234.4 115C214.623 115 195.578 115 175.8 115C156.023 115 136.978 115 117.2 115C97.4225 115 78.3775 115 58.6 115C38.8225 115 19.7775 115 9.5225 115H0V56.16Z" fill="#6BB1DF"/>
<path fill-rule="evenodd" clip-rule="evenodd" d="M0 56.16L9.5225 63.515C19.7775 70.87 38.8225 85.58 58.6 83.1283C78.3775 80.6766 97.4225 61.0633 117.2 61.0633C136.978 61.0633 156.023 80.6766 175.8 68.4183C195.578 56.16 214.623 12.0299 234.4 12.0299C254.178 12.0299 273.222 56.16 293 56.16C312.778 56.16 331.823 12.0299 351.6 2.22326C371.378 -7.58341 390.423 16.9333 410.2 38.9983C429.978 61.0633 449.023 80.6766 468.8 92.935C488.578 105.193 507.623 110.097 527.4 97.8383C547.178 85.58 566.222 56.16 586 56.16C605.778 56.16 624.823 85.58 644.6 85.58C664.378 85.58 683.423 56.16 703.2 41.45C722.978 26.7399 742.022 26.7399 761.8 38.9983C781.577 51.2566 800.623 75.7733 820.4 88.0316C840.178 100.29 859.223 100.29 869.478 100.29H879V115H869.478C859.223 115 840.178 115 820.4 115C800.623 115 781.577 115 761.8 115C742.022 115 722.978 115 703.2 115C683.423 115 664.378 115 644.6 115C624.823 115 605.778 115 586 115C566.222 115 547.178 115 527.4 115C507.623 115 488.578 115 468.8 115C449.023 115 429.978 115 410.2 115C390.423 115 371.378 115 351.6 115C331.823 115 312.778 115 293 115C273.222 115 254.178 115 234.4 115C214.623 115 195.578 115 175.8 115C156.023 115 136.978 115 117.2 115C97.4225 115 78.3775 115 58.6 115C38.8225 115 19.7775 115 9.5225 115H0V56.16Z" stroke="black"/>
</g>
</svg>
