<svg width="375" height="264" viewBox="0 0 375 264" fill="none" xmlns="http://www.w3.org/2000/svg">
<g filter="url(#filter0_i_99_58)">
<path d="M0 61.16L5.70833 59.84C11.375 58.52 22.7917 55.88 34.1667 58.96C45.5417 62.04 56.9583 70.84 68.25 77C79.5833 83.16 90.8333 86.68 102.167 88.44C113.458 90.2 124.875 90.2 136.25 87.12C147.625 84.04 159.042 77.88 170.417 76.12C181.792 74.36 193.208 77 204.583 81.84C215.958 86.68 227.375 93.72 238.75 91.96C250.125 90.2 261.542 79.64 272.833 77.88C284.167 76.12 295.417 83.16 306.75 86.24C318.042 89.32 329.458 88.44 340.833 91.96C352.208 95.48 363.625 103.4 369.292 107.36L375 111.32V73.48L369.292 70.84C363.625 68.2 352.208 62.92 340.833 62.48C329.458 62.04 318.042 66.44 306.75 65.12C295.417 63.8 284.167 56.76 272.833 57.64C261.542 58.52 250.125 67.32 238.75 66.88C227.375 66.44 215.958 56.76 204.583 51.48C193.208 46.2 181.792 45.32 170.417 46.2C159.042 47.08 147.625 49.72 136.25 54.56C124.875 59.4 113.458 66.44 102.167 65.56C90.8333 64.68 79.5833 55.88 68.25 49.28C56.9583 42.68 45.5417 38.28 34.1667 36.08C22.7917 33.88 11.375 33.88 5.70833 33.88H0V61.16Z" fill="#69AEDF"/>
</g>
<g filter="url(#filter1_i_99_58)">
<path d="M0 124.52H5.70833C11.375 124.52 22.7917 124.52 34.1667 127.16C45.5417 129.8 56.9583 135.08 68.25 136.84C79.5833 138.6 90.8333 136.84 102.167 136.4C113.458 135.96 124.875 136.84 136.25 134.64C147.625 132.44 159.042 127.16 170.417 128.04C181.792 128.92 193.208 135.96 204.583 139.48C215.958 143 227.375 143 238.75 142.56C250.125 142.12 261.542 141.24 272.833 139.48C284.167 137.72 295.417 135.08 306.75 134.2C318.042 133.32 329.458 134.2 340.833 136.4C352.208 138.6 363.625 142.12 369.292 143.88L375 145.64V110.44L369.292 106.48C363.625 102.52 352.208 94.6 340.833 91.08C329.458 87.56 318.042 88.44 306.75 85.36C295.417 82.28 284.167 75.24 272.833 77C261.542 78.76 250.125 89.32 238.75 91.08C227.375 92.84 215.958 85.8 204.583 80.96C193.208 76.12 181.792 73.48 170.417 75.24C159.042 77 147.625 83.16 136.25 86.24C124.875 89.32 113.458 89.32 102.167 87.56C90.8333 85.8 79.5833 82.28 68.25 76.12C56.9583 69.96 45.5417 61.16 34.1667 58.08C22.7917 55 11.375 57.64 5.70833 58.96L0 60.28V124.52Z" fill="#4C8FC0"/>
</g>
<g filter="url(#filter2_i_99_58)">
<path d="M0 164.12L5.70833 162.36C11.375 160.6 22.7917 157.08 34.1667 157.08C45.5417 157.08 56.9583 160.6 68.25 161.48C79.5833 162.36 90.8333 160.6 102.167 162.8C113.458 165 124.875 171.16 136.25 172.48C147.625 173.8 159.042 170.28 170.417 168.96C181.792 167.64 193.208 168.52 204.583 168.52C215.958 168.52 227.375 167.64 238.75 167.64C250.125 167.64 261.542 168.52 272.833 167.64C284.167 166.76 295.417 164.12 306.75 161.48C318.042 158.84 329.458 156.2 340.833 159.72C352.208 163.24 363.625 172.92 369.292 177.76L375 182.6V144.76L369.292 143C363.625 141.24 352.208 137.72 340.833 135.52C329.458 133.32 318.042 132.44 306.75 133.32C295.417 134.2 284.167 136.84 272.833 138.6C261.542 140.36 250.125 141.24 238.75 141.68C227.375 142.12 215.958 142.12 204.583 138.6C193.208 135.08 181.792 128.04 170.417 127.16C159.042 126.28 147.625 131.56 136.25 133.76C124.875 135.96 113.458 135.08 102.167 135.52C90.8333 135.96 79.5833 137.72 68.25 135.96C56.9583 134.2 45.5417 128.92 34.1667 126.28C22.7917 123.64 11.375 123.64 5.70833 123.64H0V164.12Z" fill="#2E71A1"/>
</g>
<path d="M0 187.88L5.70833 185.68C11.375 183.48 22.7917 179.08 34.1667 178.2C45.5417 177.32 56.9583 179.96 68.25 180.84C79.5833 181.72 90.8333 180.84 102.167 182.16C113.458 183.48 124.875 187 136.25 186.56C147.625 186.12 159.042 181.72 170.417 181.28C181.792 180.84 193.208 184.36 204.583 184.8C215.958 185.24 227.375 182.6 238.75 183.04C250.125 183.48 261.542 187 272.833 187C284.167 187 295.417 183.48 306.75 181.72C318.042 179.96 329.458 179.96 340.833 183.04C352.208 186.12 363.625 192.28 369.292 195.36L375 198.44V181.72L369.292 176.88C363.625 172.04 352.208 162.36 340.833 158.84C329.458 155.32 318.042 157.96 306.75 160.6C295.417 163.24 284.167 165.88 272.833 166.76C261.542 167.64 250.125 166.76 238.75 166.76C227.375 166.76 215.958 167.64 204.583 167.64C193.208 167.64 181.792 166.76 170.417 168.08C159.042 169.4 147.625 172.92 136.25 171.6C124.875 170.28 113.458 164.12 102.167 161.92C90.8333 159.72 79.5833 161.48 68.25 160.6C56.9583 159.72 45.5417 156.2 34.1667 156.2C22.7917 156.2 11.375 159.72 5.70833 161.48L0 163.24V187.88Z" fill="#2E71A1"/>
<path d="M0 203.72L5.70833 200.64C11.375 197.56 22.7917 191.4 34.1667 189.2C45.5417 187 56.9583 188.76 68.25 189.2C79.5833 189.64 90.8333 188.76 102.167 190.96C113.458 193.16 124.875 198.44 136.25 199.32C147.625 200.2 159.042 196.68 170.417 196.24C181.792 195.8 193.208 198.44 204.583 198.44C215.958 198.44 227.375 195.8 238.75 196.24C250.125 196.68 261.542 200.2 272.833 200.64C284.167 201.08 295.417 198.44 306.75 195.8C318.042 193.16 329.458 190.52 340.833 193.6C352.208 196.68 363.625 205.48 369.292 209.88L375 214.28V197.56L369.292 194.48C363.625 191.4 352.208 185.24 340.833 182.16C329.458 179.08 318.042 179.08 306.75 180.84C295.417 182.6 284.167 186.12 272.833 186.12C261.542 186.12 250.125 182.6 238.75 182.16C227.375 181.72 215.958 184.36 204.583 183.92C193.208 183.48 181.792 179.96 170.417 180.4C159.042 180.84 147.625 185.24 136.25 185.68C124.875 186.12 113.458 182.6 102.167 181.28C90.8333 179.96 79.5833 180.84 68.25 179.96C56.9583 179.08 45.5417 176.44 34.1667 177.32C22.7917 178.2 11.375 182.6 5.70833 184.8L0 187V203.72Z" fill="#2E71A1"/>
<g filter="url(#filter3_i_99_58)">
<path d="M0 211.64L5.70833 209C11.375 206.36 22.7917 201.08 34.1667 200.64C45.5417 200.2 56.9583 204.6 68.25 205.48C79.5833 206.36 90.8333 203.72 102.167 204.16C113.458 204.6 124.875 208.12 136.25 210.32C147.625 212.52 159.042 213.4 170.417 214.72C181.792 216.04 193.208 217.8 204.583 217.8C215.958 217.8 227.375 216.04 238.75 214.72C250.125 213.4 261.542 212.52 272.833 212.08C284.167 211.64 295.417 211.64 306.75 209.44C318.042 207.24 329.458 202.84 340.833 205.04C352.208 207.24 363.625 216.04 369.292 220.44L375 224.84V213.4L369.292 209C363.625 204.6 352.208 195.8 340.833 192.72C329.458 189.64 318.042 192.28 306.75 194.92C295.417 197.56 284.167 200.2 272.833 199.76C261.542 199.32 250.125 195.8 238.75 195.36C227.375 194.92 215.958 197.56 204.583 197.56C193.208 197.56 181.792 194.92 170.417 195.36C159.042 195.8 147.625 199.32 136.25 198.44C124.875 197.56 113.458 192.28 102.167 190.08C90.8333 187.88 79.5833 188.76 68.25 188.32C56.9583 187.88 45.5417 186.12 34.1667 188.32C22.7917 190.52 11.375 196.68 5.70833 199.76L0 202.84V211.64Z" fill="#2E71A1"/>
</g>
<g filter="url(#filter4_i_99_58)">
<path d="M0 219.56L5.70833 218.68C11.375 217.8 22.7917 216.04 34.1667 216.92C45.5417 217.8 56.9583 221.32 68.25 222.2C79.5833 223.08 90.8333 221.32 102.167 220.88C113.458 220.44 124.875 221.32 136.25 222.2C147.625 223.08 159.042 223.96 170.417 225.72C181.792 227.48 193.208 230.12 204.583 229.68C215.958 229.24 227.375 225.72 238.75 223.96C250.125 222.2 261.542 222.2 272.833 222.2C284.167 222.2 295.417 222.2 306.75 220.88C318.042 219.56 329.458 216.92 340.833 219.56C352.208 222.2 363.625 230.12 369.292 234.08L375 238.04V223.96L369.292 219.56C363.625 215.16 352.208 206.36 340.833 204.16C329.458 201.96 318.042 206.36 306.75 208.56C295.417 210.76 284.167 210.76 272.833 211.2C261.542 211.64 250.125 212.52 238.75 213.84C227.375 215.16 215.958 216.92 204.583 216.92C193.208 216.92 181.792 215.16 170.417 213.84C159.042 212.52 147.625 211.64 136.25 209.44C124.875 207.24 113.458 203.72 102.167 203.28C90.8333 202.84 79.5833 205.48 68.25 204.6C56.9583 203.72 45.5417 199.32 34.1667 199.76C22.7917 200.2 11.375 205.48 5.70833 208.12L0 210.76V219.56Z" fill="#4C8FC0"/>
</g>
<g filter="url(#filter5_i_99_58)">
<path d="M0 235.4H5.70833C11.375 235.4 22.7917 235.4 34.1667 236.72C45.5417 238.04 56.9583 240.68 68.25 240.68C79.5833 240.68 90.8333 238.04 102.167 238.04C113.458 238.04 124.875 240.68 136.25 242C147.625 243.32 159.042 243.32 170.417 244.64C181.792 245.96 193.208 248.6 204.583 247.28C215.958 245.96 227.375 240.68 238.75 239.8C250.125 238.92 261.542 242.44 272.833 242.44C284.167 242.44 295.417 238.92 306.75 237.16C318.042 235.4 329.458 235.4 340.833 237.6C352.208 239.8 363.625 244.2 369.292 246.4L375 248.6V237.16L369.292 233.2C363.625 229.24 352.208 221.32 340.833 218.68C329.458 216.04 318.042 218.68 306.75 220C295.417 221.32 284.167 221.32 272.833 221.32C261.542 221.32 250.125 221.32 238.75 223.08C227.375 224.84 215.958 228.36 204.583 228.8C193.208 229.24 181.792 226.6 170.417 224.84C159.042 223.08 147.625 222.2 136.25 221.32C124.875 220.44 113.458 219.56 102.167 220C90.8333 220.44 79.5833 222.2 68.25 221.32C56.9583 220.44 45.5417 216.92 34.1667 216.04C22.7917 215.16 11.375 216.92 5.70833 217.8L0 218.68V235.4Z" fill="#69AEDF"/>
</g>
<defs>
<filter id="filter0_i_99_58" x="0" y="33.88" width="375" height="81.44" filterUnits="userSpaceOnUse" color-interpolation-filters="sRGB">
<feFlood flood-opacity="0" result="BackgroundImageFix"/>
<feBlend mode="normal" in="SourceGraphic" in2="BackgroundImageFix" result="shape"/>
<feColorMatrix in="SourceAlpha" type="matrix" values="0 0 0 0 0 0 0 0 0 0 0 0 0 0 0 0 0 0 127 0" result="hardAlpha"/>
<feOffset dy="4"/>
<feGaussianBlur stdDeviation="2"/>
<feComposite in2="hardAlpha" operator="arithmetic" k2="-1" k3="1"/>
<feColorMatrix type="matrix" values="0 0 0 0 0 0 0 0 0 0 0 0 0 0 0 0 0 0 0.25 0"/>
<feBlend mode="normal" in2="shape" result="effect1_innerShadow_99_58"/>
</filter>
<filter id="filter1_i_99_58" x="0" y="56.6454" width="375" height="92.9946" filterUnits="userSpaceOnUse" color-interpolation-filters="sRGB">
<feFlood flood-opacity="0" result="BackgroundImageFix"/>
<feBlend mode="normal" in="SourceGraphic" in2="BackgroundImageFix" result="shape"/>
<feColorMatrix in="SourceAlpha" type="matrix" values="0 0 0 0 0 0 0 0 0 0 0 0 0 0 0 0 0 0 127 0" result="hardAlpha"/>
<feOffset dy="4"/>
<feGaussianBlur stdDeviation="2"/>
<feComposite in2="hardAlpha" operator="arithmetic" k2="-1" k3="1"/>
<feColorMatrix type="matrix" values="0 0 0 0 0 0 0 0 0 0 0 0 0 0 0 0 0 0 0.25 0"/>
<feBlend mode="normal" in2="shape" result="effect1_innerShadow_99_58"/>
</filter>
<filter id="filter2_i_99_58" x="0" y="123.64" width="375" height="62.96" filterUnits="userSpaceOnUse" color-interpolation-filters="sRGB">
<feFlood flood-opacity="0" result="BackgroundImageFix"/>
<feBlend mode="normal" in="SourceGraphic" in2="BackgroundImageFix" result="shape"/>
<feColorMatrix in="SourceAlpha" type="matrix" values="0 0 0 0 0 0 0 0 0 0 0 0 0 0 0 0 0 0 127 0" result="hardAlpha"/>
<feOffset dy="4"/>
<feGaussianBlur stdDeviation="2"/>
<feComposite in2="hardAlpha" operator="arithmetic" k2="-1" k3="1"/>
<feColorMatrix type="matrix" values="0 0 0 0 0 0 0 0 0 0 0 0 0 0 0 0 0 0 0.25 0"/>
<feBlend mode="normal" in2="shape" result="effect1_innerShadow_99_58"/>
</filter>
<filter id="filter3_i_99_58" x="0" y="187.237" width="375" height="41.6031" filterUnits="userSpaceOnUse" color-interpolation-filters="sRGB">
<feFlood flood-opacity="0" result="BackgroundImageFix"/>
<feBlend mode="normal" in="SourceGraphic" in2="BackgroundImageFix" result="shape"/>
<feColorMatrix in="SourceAlpha" type="matrix" values="0 0 0 0 0 0 0 0 0 0 0 0 0 0 0 0 0 0 127 0" result="hardAlpha"/>
<feOffset dy="4"/>
<feGaussianBlur stdDeviation="2"/>
<feComposite in2="hardAlpha" operator="arithmetic" k2="-1" k3="1"/>
<feColorMatrix type="matrix" values="0 0 0 0 0 0 0 0 0 0 0 0 0 0 0 0 0 0 0.25 0"/>
<feBlend mode="normal" in2="shape" result="effect1_innerShadow_99_58"/>
</filter>
<filter id="filter4_i_99_58" x="0" y="199.729" width="375" height="42.3109" filterUnits="userSpaceOnUse" color-interpolation-filters="sRGB">
<feFlood flood-opacity="0" result="BackgroundImageFix"/>
<feBlend mode="normal" in="SourceGraphic" in2="BackgroundImageFix" result="shape"/>
<feColorMatrix in="SourceAlpha" type="matrix" values="0 0 0 0 0 0 0 0 0 0 0 0 0 0 0 0 0 0 127 0" result="hardAlpha"/>
<feOffset dy="4"/>
<feGaussianBlur stdDeviation="2"/>
<feComposite in2="hardAlpha" operator="arithmetic" k2="-1" k3="1"/>
<feColorMatrix type="matrix" values="0 0 0 0 0 0 0 0 0 0 0 0 0 0 0 0 0 0 0.25 0"/>
<feBlend mode="normal" in2="shape" result="effect1_innerShadow_99_58"/>
</filter>
<filter id="filter5_i_99_58" x="0" y="215.8" width="375" height="36.7999" filterUnits="userSpaceOnUse" color-interpolation-filters="sRGB">
<feFlood flood-opacity="0" result="BackgroundImageFix"/>
<feBlend mode="normal" in="SourceGraphic" in2="BackgroundImageFix" result="shape"/>
<feColorMatrix in="SourceAlpha" type="matrix" values="0 0 0 0 0 0 0 0 0 0 0 0 0 0 0 0 0 0 127 0" result="hardAlpha"/>
<feOffset dy="4"/>
<feGaussianBlur stdDeviation="2"/>
<feComposite in2="hardAlpha" operator="arithmetic" k2="-1" k3="1"/>
<feColorMatrix type="matrix" values="0 0 0 0 0 0 0 0 0 0 0 0 0 0 0 0 0 0 0.25 0"/>
<feBlend mode="normal" in2="shape" result="effect1_innerShadow_99_58"/>
</filter>
</defs>
</svg>
